<svg width="16" height="11" viewBox="0 0 16 11" fill="none" xmlns="http://www.w3.org/2000/svg">
<path d="M12.2965 4.10321L11.4513 1.54837H12.161C12.4449 1.54837 12.6771 1.31611 12.6771 1.03224C12.6771 0.748371 12.4449 0.516113 12.161 0.516113H10.7384C10.3868 0.516113 10.1384 0.861275 10.2481 1.19353L10.7546 2.72579L10.3868 3.19353H5.98037L5.41585 2.25805H5.54488C5.82876 2.25805 6.06101 2.02579 6.06101 1.74192C6.06101 1.45805 5.82876 1.22579 5.54488 1.22579H3.93198C3.64811 1.22579 3.41585 1.45805 3.41585 1.74192C3.41585 2.02579 3.64811 2.25805 3.93198 2.25805H4.2094L6.92876 6.77418H6.36101C5.96101 4.28386 2.84166 3.11934 0.938433 5.02256C-0.316406 6.2774 -0.319632 8.28708 0.938433 9.54192C2.79327 11.3968 5.93521 10.3516 6.35779 7.80644H7.83843C7.9965 7.80644 8.14811 7.73224 8.24488 7.60966L11.1417 3.90644L11.3126 4.42579C10.2836 4.96127 9.57714 6.03869 9.57714 7.27418C9.57714 9.04515 11.0159 10.4839 12.7868 10.4839C14.5578 10.4839 15.9997 9.04515 15.9997 7.27418C15.9997 5.31934 14.2513 3.79998 12.2965 4.10321ZM4.56747 6.77418C4.36101 6.20321 3.81263 5.79676 3.17069 5.79676C2.35134 5.79676 1.68359 6.46127 1.68359 7.28385C1.68359 8.10321 2.34811 8.77095 3.17069 8.77095C3.80617 8.77095 4.34811 8.37095 4.56101 7.80966H5.3094C5.07392 8.7516 4.21908 9.45482 3.20295 9.45482C2.00617 9.45482 1.03198 8.48063 1.03198 7.28385C1.03198 6.08708 2.00617 5.11289 3.20295 5.11289C4.22553 5.11289 5.08359 5.82256 5.31263 6.77418H4.56747ZM7.89972 6.3774L6.60295 4.22579H9.58037L7.89972 6.3774ZM12.79 9.4516C11.59 9.4516 10.6126 8.47418 10.6126 7.27418C10.6126 6.49353 11.0255 5.80644 11.6449 5.42256L11.8739 6.11289C11.5288 6.38385 11.3062 6.80644 11.3062 7.28063C11.3062 8.09998 11.9707 8.76773 12.7933 8.76773C13.6159 8.76773 14.2804 8.10321 14.2804 7.28063C14.2804 6.48063 13.6513 5.82902 12.8578 5.79676L12.6288 5.10321C13.9029 5.00644 14.9707 6.01934 14.9707 7.27418C14.9675 8.47418 13.99 9.4516 12.79 9.4516Z" fill="#5D6C7B"/>
</svg>
