<svg width="16" height="18" viewBox="0 0 16 18" fill="none" xmlns="http://www.w3.org/2000/svg">
<path d="M13.4525 5.35819L14.5303 4.28044L13.4698 3.21956L12.3168 4.3725C11.2636 3.62609 10.0345 3.16607 8.75 3.0375V1.5H10.25V0H5.75V1.5H7.25V3.0375C5.96551 3.16607 4.73644 3.62609 3.68319 4.3725L2.53025 3.21956L1.46975 4.28044L2.5475 5.35819C1.54149 6.42334 0.869485 7.75982 0.614478 9.20259C0.359472 10.6454 0.532632 12.1312 1.11257 13.4767C1.69252 14.8222 2.65384 15.9683 3.87783 16.7736C5.10182 17.5788 6.53487 18.008 8 18.008C9.46514 18.008 10.8982 17.5788 12.1222 16.7736C13.3462 15.9683 14.3075 14.8222 14.8874 13.4767C15.4674 12.1312 15.6405 10.6454 15.3855 9.20259C15.1305 7.75982 14.4585 6.42334 13.4525 5.35819ZM8 16.5C6.81332 16.5 5.65328 16.1481 4.66658 15.4888C3.67989 14.8295 2.91085 13.8925 2.45673 12.7961C2.0026 11.6997 1.88378 10.4933 2.11529 9.32946C2.3468 8.16557 2.91825 7.09647 3.75736 6.25736C4.59648 5.41824 5.66558 4.8468 6.82946 4.61529C7.99335 4.38378 9.19975 4.5026 10.2961 4.95672C11.3925 5.41085 12.3295 6.17988 12.9888 7.16658C13.6481 8.15327 14 9.31331 14 10.5C13.9982 12.0908 13.3655 13.6158 12.2407 14.7407C11.1158 15.8655 9.59076 16.4982 8 16.5Z" fill="#5D6C7B"/>
<path d="M8 6V10.5H3.5C3.5 11.39 3.76392 12.26 4.25839 13.0001C4.75285 13.7401 5.45566 14.3169 6.27792 14.6575C7.10019 14.9981 8.00499 15.0872 8.87791 14.9135C9.75082 14.7399 10.5526 14.3113 11.182 13.682C11.8113 13.0526 12.2399 12.2508 12.4135 11.3779C12.5872 10.505 12.4981 9.60019 12.1575 8.77792C11.8169 7.95566 11.2401 7.25285 10.5001 6.75839C9.76005 6.26392 8.89002 6 8 6Z" fill="#5D6C7B"/>
</svg>
