<svg width="152" height="45" viewBox="0 0 152 45" fill="none" xmlns="http://www.w3.org/2000/svg">
<g clip-path="url(#clip0_334_29178)">
<path d="M145.745 44.8882H5.81967C2.74131 44.8882 0.222656 42.3695 0.222656 39.2912V5.70908C0.222656 2.63072 2.74131 0.112066 5.81967 0.112066H145.745C148.823 0.112066 151.342 2.63072 151.342 5.70908V39.2912C151.342 42.3695 148.823 44.8882 145.745 44.8882Z" fill="white"/>
<path d="M119.93 33.6939H122.019V19.7H119.93V33.6939ZM138.744 24.7409L136.35 30.808H136.278L133.793 24.7409H131.543L135.269 33.2208L133.145 37.9376H135.324L141.067 24.7409H138.744ZM126.898 32.1045C126.213 32.1045 125.26 31.7625 125.26 30.916C125.26 29.8359 126.448 29.4218 127.474 29.4218C128.393 29.4218 128.824 29.6199 129.382 29.8902C129.22 31.1862 128.104 32.1045 126.898 32.1045V32.1045ZM127.15 24.4348C125.638 24.4348 124.072 25.1012 123.424 26.5774L125.278 27.3514C125.674 26.5774 126.411 26.3251 127.186 26.3251C128.266 26.3251 129.364 26.9736 129.382 28.1258V28.2696C129.004 28.0536 128.195 27.7296 127.204 27.7296C125.206 27.7296 123.171 28.8275 123.171 30.8801C123.171 32.7525 124.81 33.9589 126.645 33.9589C128.05 33.9589 128.824 33.3288 129.311 32.5908H129.382V33.6708H131.398V28.3055C131.398 25.8214 129.545 24.4348 127.15 24.4348V24.4348ZM114.241 26.4444H111.27V21.6477H114.241C115.803 21.6477 116.689 22.9406 116.689 24.046C116.689 25.1305 115.803 26.4444 114.241 26.4444ZM114.188 19.7H109.183V33.6939H111.27V28.3921H114.188C116.503 28.3921 118.778 26.716 118.778 24.046C118.778 21.3761 116.503 19.7 114.188 19.7ZM86.8954 32.1071C85.4524 32.1071 84.2442 30.8989 84.2442 29.2395C84.2442 27.5626 85.4524 26.3361 86.8954 26.3361C88.3201 26.3361 89.4382 27.5626 89.4382 29.2395C89.4382 30.8989 88.3201 32.1071 86.8954 32.1071V32.1071ZM89.2939 25.5245H89.2217C88.753 24.9656 87.8508 24.4606 86.7149 24.4606C84.3344 24.4606 82.1524 26.5525 82.1524 29.2395C82.1524 31.9086 84.3344 33.9825 86.7149 33.9825C87.8508 33.9825 88.753 33.4774 89.2217 32.9007H89.2939V33.5859C89.2939 35.4076 88.3201 36.3814 86.7511 36.3814C85.4708 36.3814 84.6772 35.4614 84.3523 34.6861L82.5311 35.4434C83.0541 36.7058 84.4428 38.2568 86.7511 38.2568C89.2038 38.2568 91.2777 36.8138 91.2777 33.2973V24.7492H89.2939V25.5245ZM92.7202 33.6939H94.8122V19.6996H92.7202V33.6939ZM97.8961 29.0773C97.842 27.2377 99.3208 26.3002 100.385 26.3002C101.215 26.3002 101.918 26.7147 102.152 27.3103L97.8961 29.0773ZM104.388 27.4904C103.992 26.4261 102.783 24.4606 100.312 24.4606C97.8599 24.4606 95.8222 26.3903 95.8222 29.2216C95.8222 31.8907 97.842 33.9825 100.547 33.9825C102.729 33.9825 103.992 32.648 104.515 31.8727L102.892 30.7904C102.351 31.5841 101.611 32.1071 100.547 32.1071C99.483 32.1071 98.7257 31.62 98.2386 30.6645L104.604 28.0313L104.388 27.4904ZM53.6702 25.9215V27.9412H58.5032C58.3589 29.0773 57.9802 29.9068 57.4031 30.4839C56.7 31.1875 55.5998 31.9628 53.6702 31.9628C50.6945 31.9628 48.3683 29.5643 48.3683 26.5887C48.3683 23.6131 50.6945 21.2144 53.6702 21.2144C55.2753 21.2144 56.4472 21.8457 57.313 22.6573L58.7376 21.2327C57.5295 20.0783 55.9242 19.1946 53.6702 19.1946C49.5943 19.1946 46.168 22.513 46.168 26.5887C46.168 30.6645 49.5943 33.9825 53.6702 33.9825C55.8705 33.9825 57.5295 33.2615 58.8277 31.9086C60.1623 30.574 60.5773 28.6986 60.5773 27.1839C60.5773 26.7147 60.5413 26.2822 60.4688 25.9215H53.6702ZM66.072 32.1071C64.6289 32.1071 63.3845 30.9168 63.3845 29.2216C63.3845 27.5083 64.6289 26.3361 66.072 26.3361C67.5144 26.3361 68.7589 27.5083 68.7589 29.2216C68.7589 30.9168 67.5144 32.1071 66.072 32.1071V32.1071ZM66.072 24.4606C63.4387 24.4606 61.2926 26.4624 61.2926 29.2216C61.2926 31.9628 63.4387 33.9825 66.072 33.9825C68.7047 33.9825 70.8508 31.9628 70.8508 29.2216C70.8508 26.4624 68.7047 24.4606 66.072 24.4606ZM76.4972 32.1071C75.0547 32.1071 73.8102 30.9168 73.8102 29.2216C73.8102 27.5083 75.0547 26.3361 76.4972 26.3361C77.9398 26.3361 79.1842 27.5083 79.1842 29.2216C79.1842 30.9168 77.9398 32.1071 76.4972 32.1071ZM76.4972 24.4606C73.864 24.4606 71.7183 26.4624 71.7183 29.2216C71.7183 31.9628 73.864 33.9825 76.4972 33.9825C79.13 33.9825 81.2761 31.9628 81.2761 29.2216C81.2761 26.4624 79.13 24.4606 76.4972 24.4606Z" fill="#282739"/>
<path d="M11.988 36.3687L11.9048 36.2891C11.579 35.9444 11.3867 35.4092 11.3867 34.7162V34.8793V10.1226C11.3867 10.1203 11.3867 10.1187 11.3867 10.1169C11.3867 10.119 11.3867 10.1208 11.3867 10.123V10.2866C11.3867 9.53612 11.6109 8.97082 11.9866 8.63187L25.8558 22.5007L11.988 36.3687ZM11.3867 10.1155C11.3867 10.0538 11.3884 9.99395 11.3915 9.93496C11.3884 9.99351 11.3867 10.0538 11.3867 10.1155ZM11.3915 9.93228C11.3915 9.93149 11.3915 9.9306 11.3919 9.9297C11.3915 9.9306 11.3915 9.93149 11.3915 9.93228ZM11.3919 9.92444C11.3919 9.92399 11.3919 9.92355 11.3919 9.9231C11.3919 9.92355 11.3919 9.92399 11.3919 9.92444Z" fill="url(#paint0_linear_334_29178)"/>
<path d="M30.4778 27.2896L30.5833 27.2297L36.0604 24.1176C36.5826 23.8207 36.9306 23.4609 37.1042 23.08C36.9311 23.4609 36.5829 23.8212 36.0604 24.1181L30.5833 27.2301L30.4778 27.2896V27.2896ZM30.4792 27.1256L25.8555 22.5011L30.4787 17.8774L36.0604 21.0484C36.7692 21.4512 37.1671 21.9703 37.2336 22.5006C37.2336 22.5011 37.2336 22.502 37.2336 22.5028C37.1671 23.0319 36.7692 23.5514 36.0604 23.9541L30.4792 27.1256" fill="url(#paint1_linear_334_29178)"/>
<path d="M12.9788 36.897C12.5914 36.897 12.2534 36.771 11.9897 36.5332L11.9902 36.5327C12.2538 36.7706 12.5923 36.897 12.9797 36.897C13.0133 36.897 13.0475 36.8961 13.082 36.8944C13.047 36.8961 13.0124 36.897 12.9788 36.897V36.897ZM12.9793 36.733C12.5919 36.7334 12.2538 36.607 11.9902 36.3692V36.3688L25.858 22.5009L30.4817 27.1254L14.2334 36.3574C13.7838 36.6123 13.3579 36.733 12.9793 36.733V36.733ZM11.9863 36.5301C11.9617 36.5079 11.9377 36.4842 11.9141 36.4597L11.9863 36.5301Z" fill="url(#paint2_linear_334_29178)"/>
<path d="M25.8575 22.501L11.9883 8.63214C12.2519 8.39471 12.5895 8.26878 12.9765 8.26878C13.3561 8.26878 13.7823 8.3899 14.2328 8.64523L30.4807 17.8773L25.8575 22.501V22.501ZM30.5853 17.7728L14.2328 8.4818C13.7823 8.22635 13.3561 8.10523 12.9765 8.10523C12.9747 8.10523 12.9735 8.10523 12.9717 8.10523C12.9739 8.10523 12.9756 8.10523 12.9783 8.10523C13.357 8.10523 13.7828 8.2259 14.2328 8.48135L30.5853 17.7728V17.7728Z" fill="url(#paint3_linear_334_29178)"/>
<path d="M13.0813 36.8945C13.4332 36.8744 13.8229 36.7533 14.2326 36.5211L30.4796 27.2895L14.2326 36.5211C13.8232 36.7537 13.4332 36.8744 13.0813 36.8945V36.8945ZM11.989 36.5333L11.9855 36.5303C11.9867 36.5312 11.9881 36.5324 11.989 36.5333ZM11.9133 36.4599L11.9062 36.4529V36.4525C11.9089 36.4551 11.9111 36.4576 11.9133 36.4599Z" fill="white"/>
<path d="M30.4805 27.2896L30.5859 27.2297L30.4805 27.2896Z" fill="url(#paint4_linear_334_29178)"/>
<path d="M12.979 36.897C12.5915 36.897 12.253 36.7706 11.9894 36.5327L11.989 36.5332C11.9881 36.5323 11.9867 36.531 11.9855 36.5301L11.9133 36.4597C11.9111 36.4575 11.9089 36.4549 11.9062 36.4523L11.9894 36.3692C12.253 36.607 12.5911 36.7334 12.9785 36.733C13.3571 36.733 13.783 36.6123 14.2326 36.3574L30.481 27.1254L30.5851 27.2295L30.4796 27.2894L14.2326 36.521C13.8229 36.7531 13.4332 36.8742 13.0813 36.8944C13.0467 36.8961 13.0126 36.897 12.979 36.897" fill="url(#paint5_linear_334_29178)"/>
<path d="M11.9048 36.4531C11.579 36.1085 11.3867 35.5733 11.3867 34.8803V34.8798C11.3867 35.5733 11.579 36.108 11.9048 36.4527V36.4531" fill="white"/>
<path d="M11.9048 36.4526C11.579 36.108 11.3867 35.5732 11.3867 34.8798V34.7167C11.3867 35.4097 11.579 35.9449 11.9048 36.2895L11.988 36.3691L11.9048 36.4526" fill="url(#paint6_linear_334_29178)"/>
<path d="M11.9062 36.4526L11.9894 36.3691V36.3695L11.9062 36.4526" fill="url(#paint7_linear_334_29178)"/>
<path d="M37.1055 23.0801C37.1916 22.8911 37.2349 22.697 37.2349 22.5028C37.2349 22.5025 37.2349 22.502 37.2349 22.502C37.2349 22.6966 37.1916 22.8907 37.1055 23.0801Z" fill="white"/>
<path d="M30.5846 27.2295L30.4805 27.1254L36.0617 23.9539C36.7705 23.5512 37.1685 23.0317 37.235 22.5026C37.235 22.6968 37.1916 22.8909 37.1056 23.0799C36.9319 23.4607 36.5839 23.8206 36.0617 24.1174L30.5846 27.2295Z" fill="url(#paint8_linear_334_29178)"/>
<path d="M37.2368 22.501V22.5005C37.2363 21.915 36.845 21.3295 36.0635 20.8852L30.5864 17.7732H30.5859L30.5864 17.7728L36.0635 20.8848C36.8459 21.3291 37.2377 21.9154 37.2368 22.501Z" fill="#282739"/>
<path d="M37.2354 22.5005C37.1689 21.9701 36.7709 21.451 36.0621 21.0483L30.4805 17.8772L30.5846 17.7731H30.585L36.0621 20.8852C36.8436 21.3295 37.2349 21.9149 37.2354 22.5005Z" fill="url(#paint9_linear_334_29178)"/>
<path d="M11.3867 10.1172C11.3867 10.1167 11.3867 10.1163 11.3867 10.1158C11.3867 10.1163 11.3867 10.1167 11.3867 10.1172ZM11.3915 9.93528C11.3915 9.93439 11.3915 9.9335 11.3915 9.9326C11.3915 9.9335 11.3915 9.93439 11.3915 9.93528ZM11.3919 9.93002C11.3919 9.92823 11.3919 9.92655 11.3919 9.92476C11.3919 9.92655 11.3919 9.92823 11.3919 9.93002ZM11.3919 9.92342C11.4567 8.77346 12.082 8.10921 12.9665 8.10529C12.583 8.10753 12.249 8.23346 11.9875 8.46909V8.46865L11.9844 8.47178C11.9568 8.49663 11.9306 8.52294 11.9048 8.55002C11.6109 8.86088 11.4256 9.32656 11.3919 9.92342Z" fill="#282739"/>
<path d="M11.3867 10.2871V10.1236C11.3867 10.1213 11.3867 10.1195 11.3867 10.1174C11.3867 10.117 11.3867 10.1165 11.3867 10.1161C11.3867 10.0544 11.3884 9.99405 11.3915 9.93551C11.3915 9.93461 11.3915 9.93372 11.3915 9.93282C11.3915 9.93204 11.3915 9.93114 11.3919 9.93024C11.3919 9.92845 11.3919 9.92677 11.3919 9.92498C11.3919 9.92454 11.3919 9.92409 11.3919 9.92364C11.4256 9.32677 11.6109 8.8611 11.9048 8.55024L11.9866 8.63241C11.6109 8.97136 11.3867 9.53666 11.3867 10.2871V10.2871ZM11.9844 8.472L11.9875 8.46886C11.9866 8.47021 11.9853 8.4711 11.9844 8.472Z" fill="url(#paint10_linear_334_29178)"/>
<path d="M30.4805 17.877L14.2326 8.6449C13.7821 8.38956 13.3559 8.26844 12.9763 8.26844C12.5893 8.26844 12.2517 8.39438 11.9881 8.6318L11.9062 8.54964C11.9321 8.52255 11.9583 8.49624 11.9858 8.47139C11.9867 8.4705 11.9881 8.4696 11.989 8.46871C12.2505 8.23307 12.5845 8.10714 12.968 8.1049C12.9689 8.1049 12.9701 8.1049 12.9715 8.1049C12.9733 8.1049 12.9745 8.1049 12.9763 8.1049C13.3559 8.1049 13.7821 8.22602 14.2326 8.48146L30.5851 17.7725L30.5846 17.7728L30.4805 17.877Z" fill="url(#paint11_linear_334_29178)"/>
<path d="M48.916 11.269C48.9291 12.3316 48.7162 13.1886 48.2788 13.8393H51.6742V8.77309H48.916V11.269ZM47.3681 16.0898H46.543V13.8393H47.1997C47.7813 13.3381 48.0655 12.482 48.0537 11.269V7.94798H52.5378V13.8393H53.2878V16.0898H52.4623V14.6644H47.3681V16.0898" fill="#282739"/>
<path d="M48.9147 11.2689L48.8027 11.2702L48.8036 11.3607C48.8032 12.366 48.5933 13.1689 48.1844 13.7766L48.0673 13.9511H51.7848V8.66102H48.8027V11.2698V11.2702L48.9147 11.2689H49.0266V8.88491H51.5609V13.7272H48.2775V13.8392L48.3703 13.9013C48.8105 13.2462 49.0275 12.3961 49.0275 11.3607L49.0266 11.2676L48.9147 11.2689H49.0266H48.9147ZM47.3667 16.0897V15.9778H46.6536V13.9511H47.1984H47.2399L47.2714 13.924C47.8765 13.4019 48.1648 12.5321 48.1648 11.3423L48.1643 11.268V11.2689V8.05979H52.4245V13.9511H53.1745V15.9778H52.5729V14.6643V14.5523H47.2548V16.0897H47.3667V15.9778V16.0897H47.4787V14.7762H52.349V16.0897V16.2017H53.2865H53.3984V13.7272H52.6484V7.83591H47.9404V11.2693V11.2698L47.9409 11.3423C47.9404 12.5007 47.6597 13.2952 47.1253 13.7539L47.1984 13.8392V13.7272H46.5416H46.4297V16.2017H47.3667H47.4787V16.0897H47.3667" fill="#282739"/>
<path d="M55.7282 13.2337C56.2257 13.737 56.8336 13.9884 57.5529 13.9884C58.2721 13.9884 58.8809 13.737 59.3771 13.2337C59.8748 12.7304 60.1239 12.0871 60.1239 11.3058C60.1239 10.5244 59.8748 9.88109 59.3771 9.37781C58.8809 8.87452 58.2721 8.62311 57.5529 8.62311C56.8336 8.62311 56.2257 8.87452 55.7282 9.37781C55.2318 9.88109 54.9826 10.5244 54.9826 11.3058C54.9826 12.0871 55.2318 12.7304 55.7282 13.2337ZM60.0156 13.796C59.3553 14.475 58.5345 14.814 57.5529 14.814C56.5712 14.814 55.75 14.475 55.091 13.796C54.4308 13.1177 54.1016 12.2875 54.1016 11.3058C54.1016 10.324 54.4308 9.49366 55.091 8.81553C55.75 8.13639 56.5712 7.7971 57.5529 7.7971C58.5288 7.7971 59.3479 8.13818 60.0111 8.8199C60.6736 9.50161 61.005 10.3302 61.005 11.3058C61.005 12.2875 60.6749 13.1177 60.0156 13.796Z" fill="#282739"/>
<path d="M55.7307 13.2341L55.6511 13.3128C56.1666 13.8362 56.8098 14.1021 57.5555 14.1007C58.3006 14.1021 58.9451 13.8362 59.4592 13.3128C59.9783 12.7889 60.2394 12.1111 60.2385 11.3061C60.2394 10.5012 59.9783 9.82336 59.4592 9.29948C58.9451 8.77604 58.3006 8.51019 57.5555 8.51153C56.8098 8.51019 56.1666 8.77604 55.6511 9.29948C55.1334 9.82336 54.8724 10.5012 54.8733 11.3061C54.8724 12.1111 55.1334 12.7889 55.6511 13.3128L55.7307 13.2341L55.8108 13.1554C55.3358 12.6721 55.0984 12.0643 55.0972 11.3061C55.0984 10.5479 55.3358 9.94011 55.8108 9.45687H55.8103C56.2895 8.97373 56.8619 8.73675 57.5555 8.73541C58.2485 8.73675 58.8222 8.97373 59.3001 9.45687L59.3019 9.45866L59.3001 9.45687C59.7763 9.94011 60.0133 10.5479 60.0146 11.3061C60.0133 12.0643 59.7763 12.6721 59.3001 13.1554C58.8222 13.6385 58.2485 13.8755 57.5555 13.8768C56.8619 13.8755 56.2895 13.6385 55.8103 13.1554L55.7307 13.2341ZM60.0182 13.7963L59.9381 13.7185C59.2966 14.3762 58.5113 14.701 57.5555 14.7024C56.5992 14.701 55.8142 14.3762 55.1736 13.7185C54.5334 13.0587 54.2173 12.2629 54.2161 11.3061C54.2173 10.3494 54.5334 9.55358 55.1736 8.89369C55.8142 8.23604 56.5992 7.91075 57.5555 7.9094C58.5056 7.91075 59.2888 8.23739 59.9338 8.89851C60.5765 9.56142 60.8944 10.356 60.8957 11.3061C60.8944 12.2629 60.5774 13.0587 59.9381 13.7185L60.0182 13.7963L60.0985 13.8741C60.7772 13.1772 61.1204 12.3127 61.1195 11.3061C61.1204 10.3053 60.7763 9.44254 60.0942 8.74246C59.412 8.0397 58.5577 7.68429 57.5555 7.68552C56.548 7.68429 55.6909 8.03802 55.0132 8.7381V8.73765C54.3332 9.43504 53.9913 10.2996 53.9922 11.3061C53.9913 12.3127 54.3332 13.1772 55.0132 13.8746V13.8741C55.6909 14.5742 56.548 14.9272 57.5555 14.9263C58.5625 14.9272 59.4195 14.5742 60.0985 13.8741L60.0182 13.7963Z" fill="#282739"/>
<path d="M65.3488 14.814C64.3606 14.814 63.532 14.4795 62.8629 13.81C62.1926 13.141 61.8594 12.3062 61.8594 11.3058C61.8594 10.3052 62.1926 9.47049 62.8629 8.80154C63.532 8.13202 64.3606 7.7971 65.3488 7.7971C66.3611 7.7971 67.184 8.16314 67.8158 8.89467L67.2146 9.47665C66.759 8.90732 66.1358 8.62311 65.3488 8.62311C64.6164 8.62311 63.9984 8.87016 63.4956 9.36426C62.9919 9.85837 62.7405 10.5056 62.7405 11.3058C62.7405 12.1059 62.9919 12.7536 63.4956 13.2472C63.9984 13.7414 64.6164 13.9884 65.3488 13.9884C66.1555 13.9884 66.843 13.6634 67.4126 13.0133L68.0126 13.6132C67.7057 13.9822 67.3217 14.2747 66.8582 14.4899C66.396 14.7059 65.8919 14.814 65.3488 14.814" fill="#282739"/>
<path d="M65.3514 14.8143V14.7024C64.3881 14.701 63.5944 14.3797 62.9446 13.7312C62.2953 13.0818 61.9748 12.2817 61.9739 11.3061C61.9748 10.3306 62.2953 9.53041 62.9446 8.88105C63.5944 8.23213 64.3881 7.91075 65.3514 7.9094C66.337 7.9112 67.1206 8.26011 67.7335 8.96802L67.8184 8.89504L67.7406 8.81455L67.1394 9.39698L67.2172 9.47702L67.3046 9.40705C66.8297 8.81153 66.1647 8.50985 65.3514 8.51153C64.5935 8.51064 63.9416 8.7709 63.4199 9.28459C62.893 9.80019 62.6297 10.4831 62.6311 11.3061C62.6297 12.1291 62.893 12.8129 63.4199 13.3276C63.9416 13.8413 64.5935 14.1016 65.3514 14.1007C66.1887 14.1021 66.9141 13.7583 67.4991 13.0875L67.4152 13.0137L67.336 13.0928L67.936 13.6927L68.0152 13.6135L67.929 13.5423C67.6326 13.8982 67.2635 14.1799 66.8135 14.3888C66.3662 14.5978 65.88 14.7019 65.3514 14.7024V14.8143V14.9263C65.9093 14.9263 66.4306 14.8152 66.908 14.5918C67.3855 14.3705 67.7835 14.0675 68.1013 13.6853L68.1664 13.6071L67.4944 12.9345L67.4096 12.8497L67.3309 12.9398C66.7772 13.5699 66.1275 13.8755 65.3514 13.8768C64.6439 13.8755 64.061 13.642 63.5769 13.1676H63.5765C63.0955 12.6953 62.8559 12.0835 62.855 11.3061C62.8559 10.5287 63.0955 9.91784 63.5765 9.44466H63.5769C64.061 8.97026 64.6439 8.73675 65.3514 8.73541C66.1118 8.7372 66.6928 9.00396 67.1297 9.54698L67.2066 9.64325L67.8962 8.97552L67.9723 8.90198L67.9033 8.82205C67.253 8.06645 66.3903 7.68429 65.3514 7.68552C64.3377 7.68463 63.4741 8.03321 62.7864 8.72276C62.095 9.41097 61.7487 10.2812 61.75 11.3061C61.7487 12.331 62.095 13.2013 62.7864 13.8899C63.4741 14.579 64.3377 14.9272 65.3514 14.9263V14.8143" fill="#282739"/>
<path d="M71.505 14.6641H70.6415V8.77275H68.7656V7.94764H73.3809V8.77275H71.505V14.6641Z" fill="#282739"/>
<path d="M71.5037 14.6644V14.5525H70.7521V8.66118H68.8762V8.05995H73.2676V8.66118H71.3917V14.6644H71.5037V14.5525V14.6644H71.6156V8.88506H73.4915V7.94801V7.83607H68.6523V8.77312V8.88506H70.5282V14.7764H71.5037H71.6156V14.6644H71.5037" fill="#282739"/>
<path d="M75.2558 12.0369H77.4876L76.3901 9.0076H76.3529L75.2558 12.0369ZM73.3516 14.6641L75.8847 7.94764H76.8593L79.392 14.6641H78.4357L77.788 12.8437H74.9651L74.3083 14.6641H73.3516Z" fill="#282739"/>
<path d="M75.2575 12.0373V12.1492H77.649L76.47 8.89603H76.3546H76.2759L75.098 12.1492H75.2575V12.0373L75.3629 12.0758L76.4601 9.04603L76.3546 9.00797V9.11991H76.3918V9.00797L76.2864 9.04603L77.3297 11.9254H75.2575V12.0373L75.3629 12.0758L75.2575 12.0373ZM73.3533 14.6644L73.4582 14.7038L75.9637 8.05995H76.7831L79.2318 14.5525H78.5161L77.8688 12.7321H74.8881L74.2312 14.5525H73.3533V14.6644L73.4582 14.7038L73.3533 14.6644V14.7764H74.31H74.3887L75.0455 12.956H77.711L78.3582 14.7764H79.3937H79.5554L76.9384 7.83607H75.8864H75.8089L73.1914 14.7764H73.3533V14.6644" fill="#282739"/>
<path d="M80.3672 14.6641V7.94764H85.2265V14.6641H84.363V8.77275H81.2299V14.6641H80.3672Z" fill="#282739"/>
<path d="M80.3658 14.6644H80.4778V8.05995H85.1132V14.5525H84.4736V8.66118H81.1166V14.5525H80.3658V14.6644H80.4778H80.3658V14.7764H81.2286H81.3405V8.88506H84.2497V14.7764H85.2252H85.3371V7.83607H80.2539V14.7764H80.3658V14.6644" fill="#282739"/>
<path d="M86.7656 14.6641V7.94764H87.6285V10.8271H90.9867V7.94764H91.8497V14.6641H90.9867V11.6338H87.6285V14.6641H86.7656Z" fill="#282739"/>
<path d="M86.7643 14.6644H86.8762V8.05995H87.5152L87.5147 10.9394H91.0973V8.05995H91.7365V14.5525H91.0968L91.0973 11.5223H87.5147V14.5525H86.7643V14.6644H86.8762H86.7643V14.7764H87.6271H87.7391V11.7461H90.873V14.7764H91.8484H91.9603V7.83607H90.9853H90.873V10.7155H87.7386L87.7391 7.83607H86.7643H86.6523V14.7764H86.7643V14.6644Z" fill="#282739"/>
<path d="M94.5914 13.2337C95.0891 13.737 95.6964 13.9884 96.4157 13.9884C97.1355 13.9884 97.7441 13.737 98.2405 13.2337C98.7376 12.7304 98.9873 12.0871 98.9873 11.3058C98.9873 10.5244 98.7376 9.88109 98.2405 9.37781C97.7441 8.87452 97.1355 8.62311 96.4157 8.62311C95.6964 8.62311 95.0891 8.87452 94.5914 9.37781C94.0952 9.88109 93.8459 10.5244 93.8459 11.3058C93.8459 12.0871 94.0952 12.7304 94.5914 13.2337ZM98.8789 13.796C98.2187 14.475 97.3979 14.814 96.4157 14.814C95.4346 14.814 94.6134 14.475 93.9544 13.796C93.2942 13.1177 92.9648 12.2875 92.9648 11.3058C92.9648 10.324 93.2942 9.49366 93.9544 8.81553C94.6134 8.13639 95.4346 7.7971 96.4157 7.7971C97.3922 7.7971 98.2107 8.13818 98.8745 8.8199C99.537 9.50161 99.8684 10.3302 99.8684 11.3058C99.8684 12.2875 99.5383 13.1177 98.8789 13.796Z" fill="#282739"/>
<path d="M94.594 13.2341L94.5144 13.3128C95.03 13.8362 95.6732 14.1021 96.4183 14.1007C97.1638 14.1021 97.8079 13.8362 98.3226 13.3128C98.8417 12.7889 99.1028 12.1111 99.1019 11.3061C99.1028 10.5012 98.8417 9.82336 98.3226 9.29948C97.8079 8.77604 97.1638 8.51019 96.4183 8.51153C95.6732 8.51019 95.03 8.77604 94.5144 9.29948C93.9967 9.82336 93.7357 10.5012 93.7366 11.3061C93.7357 12.1111 93.9967 12.7889 94.5144 13.3128L94.594 13.2341L94.6736 13.1554C94.1988 12.6721 93.9613 12.0643 93.9604 11.3061C93.9613 10.5479 94.1988 9.94011 94.6736 9.45687C95.1529 8.97373 95.7253 8.73675 96.4183 8.73541C97.1119 8.73675 97.6856 8.97373 98.1635 9.45687L98.1665 9.46045L98.1635 9.45687C98.6392 9.94011 98.8766 10.5479 98.878 11.3061C98.8766 12.0643 98.6392 12.6721 98.1635 13.1554C97.6856 13.6385 97.1119 13.8755 96.4183 13.8768C95.7253 13.8755 95.1529 13.6385 94.6736 13.1554L94.594 13.2341ZM98.8814 13.7963L98.801 13.7185C98.1595 14.3762 97.3746 14.701 96.4183 14.7024C95.4625 14.701 94.6775 14.3762 94.037 13.7185L94.0339 13.7151L94.037 13.7185C93.3964 13.0587 93.0802 12.2629 93.0794 11.3061C93.0802 10.3494 93.3964 9.55358 94.037 8.89369C94.6775 8.23604 95.4625 7.91075 96.4183 7.9094C97.3686 7.91075 98.1517 8.23739 98.797 8.89851C99.4398 9.56142 99.7577 10.356 99.7591 11.3061C99.7577 12.2629 99.4407 13.0587 98.801 13.7185L98.8814 13.7963L98.9619 13.8741C99.6405 13.1772 99.9838 12.3127 99.9829 11.3061C99.9838 10.3053 99.6393 9.44254 98.9576 8.74246C98.2754 8.0397 97.4205 7.68429 96.4183 7.68552C95.4113 7.68429 94.5543 8.03802 93.8765 8.7381V8.73765C93.1966 9.43504 92.8546 10.2996 92.8555 11.3061C92.8546 12.3127 93.1966 13.1772 93.8765 13.8746V13.8741C94.5543 14.5742 95.4113 14.9272 96.4183 14.9263C97.4258 14.9272 98.2828 14.5742 98.9619 13.8741L98.8814 13.7963" fill="#282739"/>
<path d="M103.398 14.6641V7.94764H104.26V10.8271H107.619V7.94764H108.483V14.6641H107.619V11.6338H104.26V14.6641H103.398Z" fill="#282739"/>
<path d="M103.397 14.6644H103.509V8.05995H104.147V10.9394H107.729V8.05995H108.369V14.5525H107.729V11.5223H104.147V14.5525H103.397V14.6644H103.509H103.397V14.7764H104.259H104.371V11.7461H107.505V14.7764H108.481H108.593V7.83607H107.617H107.505V10.7155H104.371V7.83607H103.397H103.285V14.7764H103.397V14.6644Z" fill="#282739"/>
<path d="M111.361 12.0369H113.593L112.496 9.0076H112.459L111.361 12.0369ZM109.457 14.6641L111.99 7.94764H112.965L115.498 14.6641H114.541L113.894 12.8437H111.07L110.414 14.6641H109.457Z" fill="#282739"/>
<path d="M111.363 12.0373V12.1492H113.755L112.577 8.89603H112.461H112.383L111.204 12.1492H111.363V12.0373L111.469 12.0758L112.567 9.04603L112.461 9.00797V9.11991H112.498V9.00797L112.393 9.04603L113.436 11.9254H111.363V12.0373L111.469 12.0758L111.363 12.0373ZM109.459 14.6644L109.564 14.7038L112.07 8.05995H112.89L115.338 14.5525H114.623L113.975 12.7321H110.994L110.337 14.5525H109.459V14.6644L109.564 14.7038L109.459 14.6644V14.7764H110.416H110.495L111.152 12.956H113.817L114.464 14.7764H115.501H115.662L113.045 7.83607H111.992H111.915L109.297 14.7764H109.459V14.6644" fill="#282739"/>
</g>
<defs>
<linearGradient id="paint0_linear_334_29178" x1="24.626" y1="9.86142" x2="5.83963" y2="28.6478" gradientUnits="userSpaceOnUse">
<stop stop-color="#00A0FF"/>
<stop offset="0.00657445" stop-color="#00A1FF"/>
<stop offset="0.2601" stop-color="#00BEFF"/>
<stop offset="0.5122" stop-color="#00D2FF"/>
<stop offset="0.7604" stop-color="#00DFFF"/>
<stop offset="1" stop-color="#00E3FF"/>
</linearGradient>
<linearGradient id="paint1_linear_334_29178" x1="38.0973" y1="22.5018" x2="11.0111" y2="22.5018" gradientUnits="userSpaceOnUse">
<stop stop-color="#FFE000"/>
<stop offset="0.4087" stop-color="#FFBD00"/>
<stop offset="0.7754" stop-color="#FFA500"/>
<stop offset="1" stop-color="#FF9C00"/>
</linearGradient>
<linearGradient id="paint2_linear_334_29178" x1="28.0169" y1="25.0703" x2="2.54118" y2="50.546" gradientUnits="userSpaceOnUse">
<stop stop-color="#FF3A44"/>
<stop offset="1" stop-color="#C31162"/>
</linearGradient>
<linearGradient id="paint3_linear_334_29178" x1="8.39354" y1="0.309262" x2="19.7695" y2="11.6852" gradientUnits="userSpaceOnUse">
<stop stop-color="#32A071"/>
<stop offset="0.0685" stop-color="#2DA771"/>
<stop offset="0.4762" stop-color="#15CF74"/>
<stop offset="0.8009" stop-color="#06E775"/>
<stop offset="1" stop-color="#00F076"/>
</linearGradient>
<linearGradient id="paint4_linear_334_29178" x1="38.1" y1="22.5019" x2="11.0134" y2="22.5019" gradientUnits="userSpaceOnUse">
<stop stop-color="#CCB300"/>
<stop offset="0.4087" stop-color="#CC9700"/>
<stop offset="0.7754" stop-color="#CC8400"/>
<stop offset="1" stop-color="#CC7D00"/>
</linearGradient>
<linearGradient id="paint5_linear_334_29178" x1="28.0161" y1="25.0703" x2="2.54042" y2="50.546" gradientUnits="userSpaceOnUse">
<stop stop-color="#CC2E36"/>
<stop offset="1" stop-color="#9C0E4E"/>
</linearGradient>
<linearGradient id="paint6_linear_334_29178" x1="24.626" y1="9.86189" x2="5.83966" y2="28.6483" gradientUnits="userSpaceOnUse">
<stop stop-color="#008DE0"/>
<stop offset="0.00657445" stop-color="#008DE0"/>
<stop offset="0.2601" stop-color="#00A7E0"/>
<stop offset="0.5122" stop-color="#00B8E0"/>
<stop offset="0.7604" stop-color="#00C4E0"/>
<stop offset="1" stop-color="#00C7E0"/>
</linearGradient>
<linearGradient id="paint7_linear_334_29178" x1="28.0166" y1="25.0705" x2="2.54077" y2="50.547" gradientUnits="userSpaceOnUse">
<stop stop-color="#E0333C"/>
<stop offset="1" stop-color="#AB0F56"/>
</linearGradient>
<linearGradient id="paint8_linear_334_29178" x1="38.0986" y1="22.5016" x2="11.0123" y2="22.5016" gradientUnits="userSpaceOnUse">
<stop stop-color="#E0C500"/>
<stop offset="0.4087" stop-color="#E0A600"/>
<stop offset="0.7754" stop-color="#E09100"/>
<stop offset="1" stop-color="#E08900"/>
</linearGradient>
<linearGradient id="paint9_linear_334_29178" x1="38.099" y1="22.5016" x2="11.0128" y2="22.5016" gradientUnits="userSpaceOnUse">
<stop stop-color="#FFE840"/>
<stop offset="0.4087" stop-color="#FFCE40"/>
<stop offset="0.7754" stop-color="#FFBC40"/>
<stop offset="1" stop-color="#FFB540"/>
</linearGradient>
<linearGradient id="paint10_linear_334_29178" x1="24.626" y1="9.86196" x2="5.83964" y2="28.6484" gradientUnits="userSpaceOnUse">
<stop stop-color="#40B8FF"/>
<stop offset="0.00657445" stop-color="#40B9FF"/>
<stop offset="0.2601" stop-color="#40CEFF"/>
<stop offset="0.5122" stop-color="#40DDFF"/>
<stop offset="0.7604" stop-color="#40E7FF"/>
<stop offset="1" stop-color="#40EAFF"/>
</linearGradient>
<linearGradient id="paint11_linear_334_29178" x1="8.39334" y1="0.308928" x2="19.7693" y2="11.6849" gradientUnits="userSpaceOnUse">
<stop stop-color="#65B895"/>
<stop offset="0.0685" stop-color="#62BD95"/>
<stop offset="0.4762" stop-color="#50DB97"/>
<stop offset="0.8009" stop-color="#44ED98"/>
<stop offset="1" stop-color="#40F498"/>
</linearGradient>
<clipPath id="clip0_334_29178">
<rect width="151.455" height="45" fill="white"/>
</clipPath>
</defs>
</svg>
