<svg width="136" height="45" viewBox="0 0 136 45" fill="none" xmlns="http://www.w3.org/2000/svg">
<g clip-path="url(#clip0_334_29179)">
<path d="M124.359 0.00014625H11.1835C10.771 0.00014625 10.3634 0.00014625 9.95197 0.00239625C9.60756 0.00464625 9.26588 0.0111825 8.91816 0.0166837C8.16273 0.0255733 7.40909 0.092032 6.66377 0.215482C5.9195 0.34162 5.19854 0.579426 4.52528 0.920857C3.85284 1.26518 3.23842 1.71258 2.7043 2.24685C2.16737 2.77961 1.7198 3.39541 1.3788 4.07058C1.03686 4.74439 0.799752 5.46645 0.675675 6.21181C0.550419 6.95623 0.483017 7.70923 0.474075 8.46406C0.463635 8.80899 0.462532 9.15506 0.457031 9.50003V35.5036C0.462532 35.8529 0.463635 36.1913 0.474075 36.5407C0.48302 37.2955 0.550421 38.0485 0.675675 38.7928C0.799409 39.5386 1.03653 40.2611 1.3788 40.9352C1.71965 41.6082 2.16728 42.2215 2.7043 42.7513C3.23639 43.2879 3.85122 43.7356 4.52528 44.0773C5.19853 44.4196 5.91941 44.6589 6.66377 44.787C7.40922 44.9094 8.16278 44.9759 8.91816 44.9859C9.26588 44.9935 9.60756 44.9979 9.95197 44.9979C10.3634 45.0001 10.771 45.0001 11.1835 45.0001H124.359C124.763 45.0001 125.174 45.0001 125.578 44.9979C125.921 44.9979 126.272 44.9935 126.615 44.9859C127.369 44.9764 128.121 44.9099 128.865 44.787C129.612 44.658 130.336 44.4188 131.012 44.0773C131.685 43.7354 132.3 43.2877 132.831 42.7513C133.367 42.2194 133.816 41.6065 134.161 40.9352C134.5 40.2606 134.735 39.5382 134.857 38.7928C134.983 38.0484 135.052 37.2956 135.066 36.5407C135.07 36.1913 135.07 35.8529 135.07 35.5036C135.079 35.0949 135.079 34.6884 135.079 34.273V10.7283C135.079 10.3163 135.079 9.90761 135.07 9.50003C135.07 9.15506 135.07 8.80899 135.066 8.46402C135.052 7.70912 134.983 6.95629 134.857 6.21177C134.735 5.46684 134.5 4.74484 134.161 4.07053C133.466 2.71724 132.365 1.61567 131.012 0.920756C130.336 0.580159 129.612 0.342417 128.865 0.215381C128.122 0.0913869 127.369 0.024905 126.615 0.0165262C126.272 0.0110362 125.921 0.00444375 125.578 0.00225C125.174 0 124.763 0 124.359 0V0.00014625Z" fill="white"/>
<path d="M28.5767 22.3748C28.5893 21.3983 28.8487 20.4409 29.3307 19.5917C29.8127 18.7424 30.5017 18.0288 31.3336 17.5174C30.8052 16.7626 30.108 16.1415 29.2974 15.7033C28.4869 15.2651 27.5854 15.022 26.6645 14.9931C24.6999 14.7869 22.7954 16.1687 21.7943 16.1687C20.7739 16.1687 19.2326 15.0136 17.5728 15.0478C16.4992 15.0825 15.4529 15.3946 14.5359 15.9539C13.6189 16.5132 12.8623 17.3005 12.34 18.2391C10.0775 22.1563 11.7651 27.9134 13.9325 31.0798C15.0168 32.6303 16.2841 34.3623 17.9424 34.3009C19.5651 34.2335 20.1711 33.2661 22.1299 33.2661C24.0704 33.2661 24.639 34.3009 26.3309 34.2618C28.0722 34.2335 29.1692 32.7044 30.2155 31.1392C30.9947 30.0344 31.5942 28.8134 31.9919 27.5213C30.9803 27.0935 30.117 26.3773 29.5097 25.4621C28.9024 24.5469 28.5779 23.4732 28.5767 22.3748Z" fill="#282739"/>
<path d="M25.384 12.9113C26.3334 11.7716 26.8011 10.3066 26.6879 8.82764C25.2374 8.97998 23.8976 9.6732 22.9354 10.7692C22.4649 11.3046 22.1046 11.9275 21.875 12.6022C21.6454 13.277 21.5511 13.9904 21.5974 14.7016C22.3229 14.7091 23.0406 14.5518 23.6965 14.2417C24.3524 13.9316 24.9294 13.4767 25.384 12.9113V12.9113Z" fill="#282739"/>
<path d="M48.0469 30.5321H42.7218L41.443 34.3081H39.1875L44.2313 20.3379H46.5747L51.6185 34.3081H49.3246L48.0469 30.5321ZM43.2733 28.7897H47.4943L45.4135 22.6615H45.3552L43.2733 28.7897Z" fill="#282739"/>
<path d="M62.5085 29.2159C62.5085 32.381 60.8144 34.4146 58.2578 34.4146C57.6102 34.4485 56.9662 34.2993 56.3994 33.9841C55.8326 33.669 55.3661 33.2006 55.0531 32.6326H55.0048V37.6775H52.9141V24.1226H54.9377V25.8167H54.9762C55.3035 25.2514 55.778 24.7855 56.3491 24.4684C56.9201 24.1513 57.5665 23.995 58.2194 24.016C60.8045 24.016 62.5085 26.0595 62.5085 29.2159ZM60.3595 29.2159C60.3595 27.1538 59.2938 25.798 57.6679 25.798C56.0705 25.798 54.996 27.1823 54.996 29.2159C54.996 31.2681 56.0705 32.6425 57.6679 32.6425C59.2939 32.6425 60.3595 31.2967 60.3595 29.2159H60.3595Z" fill="#282739"/>
<path d="M73.7199 29.2159C73.7199 32.381 72.0253 34.4146 69.4688 34.4146C68.8212 34.4485 68.1771 34.2993 67.6103 33.9841C67.0436 33.669 66.577 33.2006 66.2641 32.6326H66.2157V37.6775H64.125V24.1226H66.1487V25.8167H66.1871C66.5145 25.2514 66.9889 24.7855 67.56 24.4684C68.1311 24.1513 68.7774 23.995 69.4303 24.016C72.0154 24.016 73.7199 26.0595 73.7199 29.2159ZM71.5705 29.2159C71.5705 27.1538 70.5048 25.798 68.8788 25.798C67.2814 25.798 66.2069 27.1823 66.2069 29.2159C66.2069 31.2681 67.2814 32.6425 68.8788 32.6425C70.5048 32.6425 71.5705 31.2967 71.5705 29.2159V29.2159Z" fill="#282739"/>
<path d="M81.1285 30.4157C81.2834 31.8011 82.6292 32.7107 84.4683 32.7107C86.2305 32.7107 87.4983 31.801 87.4983 30.5519C87.4983 29.4675 86.7337 28.8183 84.9232 28.3733L83.1126 27.9371C80.5473 27.3175 79.3564 26.1178 79.3564 24.171C79.3564 21.7606 81.457 20.105 84.4387 20.105C87.3918 20.105 89.4155 21.7606 89.4836 24.171H87.3731C87.2468 22.7769 86.0943 21.9353 84.4101 21.9353C82.7259 21.9353 81.5734 22.7868 81.5734 24.026C81.5734 25.0137 82.3095 25.5949 84.1102 26.0398L85.6493 26.4177C88.5157 27.0955 89.7055 28.2469 89.7055 30.2904C89.7055 32.904 87.6247 34.541 84.3134 34.541C81.2152 34.541 79.1234 32.9425 78.9883 30.4156L81.1285 30.4157Z" fill="#282739"/>
<path d="M94.2222 21.7124V24.1228H96.1591V25.7784H94.2222V31.3936C94.2222 32.2659 94.61 32.6724 95.4614 32.6724C95.6914 32.6684 95.9209 32.6522 96.1492 32.624V34.2697C95.7664 34.3413 95.3773 34.3737 94.9879 34.3664C92.9258 34.3664 92.1216 33.5919 92.1216 31.6165V25.7784H90.6406V24.1228H92.1215V21.7124H94.2222Z" fill="#282739"/>
<path d="M97.2773 29.2161C97.2773 26.0114 99.1648 23.9976 102.108 23.9976C105.061 23.9976 106.94 26.0113 106.94 29.2161C106.94 32.4296 105.071 34.4346 102.108 34.4346C99.1461 34.4346 97.2773 32.4296 97.2773 29.2161ZM104.81 29.2161C104.81 27.0177 103.802 25.7202 102.108 25.7202C100.414 25.7202 99.4065 27.0276 99.4065 29.2161C99.4065 31.4232 100.414 32.7108 102.108 32.7108C103.802 32.7108 104.81 31.4232 104.81 29.2161H104.81Z" fill="#282739"/>
<path d="M108.664 24.1225H110.658V25.8561H110.706C110.841 25.3147 111.159 24.8362 111.605 24.5011C112.051 24.166 112.599 23.9946 113.156 24.0159C113.397 24.0151 113.638 24.0413 113.873 24.0939V26.0495C113.569 25.9566 113.251 25.9139 112.933 25.9232C112.63 25.9108 112.327 25.9644 112.046 26.0801C111.765 26.1959 111.512 26.3711 111.305 26.5937C111.098 26.8163 110.942 27.0811 110.847 27.3699C110.752 27.6586 110.72 27.9645 110.755 28.2665V34.3079H108.664L108.664 24.1225Z" fill="#282739"/>
<path d="M123.512 31.3167C123.231 33.1656 121.43 34.4346 119.126 34.4346C116.163 34.4346 114.324 32.4493 114.324 29.2644C114.324 26.0696 116.173 23.9976 119.038 23.9976C121.856 23.9976 123.629 25.9333 123.629 29.0216V29.7379H116.435V29.8643C116.401 30.2391 116.448 30.6167 116.572 30.972C116.696 31.3274 116.894 31.6523 117.154 31.9251C117.413 32.198 117.727 32.4126 118.075 32.5547C118.424 32.6968 118.799 32.7631 119.175 32.7493C119.669 32.7956 120.165 32.6811 120.588 32.423C121.012 32.1649 121.341 31.7769 121.527 31.3166L123.512 31.3167ZM116.445 28.2767H121.537C121.555 27.9397 121.504 27.6024 121.387 27.286C121.269 26.9697 121.087 26.6811 120.852 26.4383C120.618 26.1956 120.336 26.004 120.023 25.8755C119.711 25.747 119.376 25.6844 119.038 25.6917C118.698 25.6896 118.36 25.755 118.045 25.8841C117.73 26.0132 117.444 26.2034 117.203 26.4437C116.962 26.6841 116.771 26.9698 116.64 27.2844C116.51 27.599 116.444 27.9363 116.445 28.2767V28.2767Z" fill="#282739"/>
<path d="M41.786 12.6601H42.6836C42.8381 12.6793 42.9949 12.6663 43.1442 12.622C43.2934 12.5776 43.4319 12.5028 43.5508 12.4022C43.6697 12.3017 43.7665 12.1776 43.835 12.0378C43.9036 11.898 43.9425 11.7456 43.9492 11.59C43.9492 10.9709 43.4834 10.571 42.6935 10.571C42.5352 10.5489 42.374 10.5587 42.2196 10.5999C42.0652 10.6411 41.9205 10.7128 41.7943 10.8108C41.668 10.9088 41.5626 11.0311 41.4844 11.1705C41.4062 11.3099 41.3567 11.4636 41.3389 11.6224H40.3534C40.3703 11.3341 40.4465 11.0523 40.577 10.7947C40.7076 10.537 40.8898 10.309 41.1123 10.1249C41.3348 9.9407 41.5929 9.80431 41.8704 9.72419C42.1479 9.64407 42.4389 9.62193 42.7253 9.65915C44.047 9.65915 44.9776 10.3991 44.9776 11.4642C44.9807 11.821 44.8613 12.1681 44.6393 12.4475C44.4174 12.727 44.1063 12.9218 43.7581 12.9995V13.0786C44.1709 13.097 44.5598 13.278 44.8395 13.5822C45.1193 13.8863 45.2673 14.2889 45.2511 14.7019C45.2205 14.9988 45.131 15.2865 44.9878 15.5484C44.8446 15.8102 44.6506 16.0408 44.4171 16.2267C44.1836 16.4126 43.9153 16.55 43.628 16.6308C43.3407 16.7117 43.0402 16.7343 42.744 16.6975C42.4472 16.738 42.1453 16.7183 41.8563 16.6396C41.5673 16.5609 41.2971 16.4248 41.0618 16.2394C40.8265 16.0541 40.631 15.8232 40.4868 15.5607C40.3426 15.2981 40.2528 15.0092 40.2227 14.7112H41.2235C41.2839 15.3534 41.8739 15.7676 42.744 15.7676C43.6141 15.7676 44.1821 15.3023 44.1821 14.6464C44.1821 13.9812 43.6471 13.5714 42.7122 13.5714H41.786V12.6601Z" fill="#282739"/>
<path d="M46.3906 15.102C46.3906 14.1902 47.0707 13.6645 48.2748 13.5898L49.647 13.5107V13.0734C49.647 12.5384 49.2943 12.2363 48.6099 12.2363C48.0518 12.2363 47.6661 12.4412 47.5541 12.7993H46.5862C46.6884 11.9292 47.5079 11.3711 48.6571 11.3711C49.9271 11.3711 50.6434 12.0033 50.6434 13.0734V16.5347H49.6799V15.8228H49.6008C49.4403 16.0781 49.2148 16.2863 48.9475 16.426C48.6802 16.5658 48.3806 16.6321 48.0792 16.6181C47.8666 16.6402 47.6516 16.6176 47.4483 16.5515C47.2449 16.4855 47.0577 16.3776 46.8986 16.2347C46.7395 16.0919 46.6121 15.9173 46.5246 15.7222C46.4371 15.5271 46.3915 15.3159 46.3906 15.102V15.102ZM49.647 14.6692V14.2457L48.4099 14.3248C47.7122 14.3714 47.3958 14.6088 47.3958 15.0553C47.3958 15.5113 47.7913 15.7766 48.3352 15.7766C48.4946 15.7927 48.6555 15.7766 48.8085 15.7293C48.9615 15.6819 49.1035 15.6043 49.2259 15.501C49.3482 15.3977 49.4486 15.2708 49.5209 15.1279C49.5933 14.985 49.6362 14.829 49.647 14.6692V14.6692Z" fill="#282739"/>
<path d="M53.2966 12.3103V16.5345H52.2969V11.4688H55.6324V12.3102L53.2966 12.3103Z" fill="#282739"/>
<path d="M61.6917 14.0005C61.6917 15.61 60.8776 16.6191 59.5988 16.6191C59.2848 16.6405 58.9713 16.5718 58.6951 16.4211C58.419 16.2703 58.1916 16.0438 58.0398 15.7682H57.9607V18.2198H56.9609V11.4698H57.9233V12.307H57.9981C58.1526 12.0217 58.3829 11.7847 58.6636 11.6222C58.9444 11.4596 59.2646 11.3778 59.5889 11.3858C60.8776 11.3858 61.6917 12.3904 61.6917 14.0005ZM60.6633 14.0005C60.6633 12.9304 60.1569 12.2839 59.3098 12.2839C58.4683 12.2839 57.942 12.9442 57.942 14.0049C57.942 15.0607 58.4683 15.7215 59.3054 15.7215C60.1569 15.7215 60.6633 15.075 60.6633 14.0005Z" fill="#282739"/>
<path d="M63.0203 18.3489V17.4882C63.1285 17.5019 63.2375 17.5081 63.3466 17.5068C63.5596 17.5226 63.7709 17.4592 63.94 17.3287C64.1091 17.1982 64.224 17.0099 64.2628 16.7999L64.3375 16.5532L62.5039 11.4688H63.5926L64.8627 15.4925H64.9418L66.2074 11.4688H67.2676L65.3791 16.7438C64.9462 17.9765 64.4672 18.372 63.4345 18.372C63.351 18.372 63.1137 18.3627 63.0203 18.3489Z" fill="#282739"/>
<path d="M68.0469 15.0971H69.0422C69.14 15.5437 69.5586 15.7766 70.1442 15.7766C70.8099 15.7766 71.2186 15.4833 71.2186 15.0273C71.2186 14.539 70.8517 14.3061 70.1442 14.3061H69.3861V13.5294H70.131C70.7352 13.5294 71.0429 13.297 71.0429 12.8735C71.0429 12.5016 70.7451 12.2176 70.131 12.2176C69.5718 12.2176 69.1631 12.4549 69.0982 12.8548H68.1348C68.2068 12.3953 68.4563 11.9824 68.8296 11.705C69.2029 11.4275 69.6702 11.3076 70.131 11.3711C71.3351 11.3711 72.0239 11.9155 72.0239 12.7713C72.0296 13.0097 71.9532 13.2427 71.8076 13.4315C71.662 13.6202 71.4561 13.7533 71.2241 13.8084V13.8875C71.5003 13.9232 71.7537 14.0589 71.9364 14.269C72.119 14.4791 72.2182 14.749 72.2151 15.0274C72.2151 15.9904 71.3955 16.6275 70.1442 16.6275C69.0378 16.6275 68.1392 16.1205 68.0469 15.0971Z" fill="#282739"/>
<path d="M73.6562 16.5345V11.4688H74.6472V14.9531H74.7263L77.0609 11.4688H78.0519V16.5346H77.0609V13.0316H76.9862L74.6472 16.5346L73.6562 16.5345Z" fill="#282739"/>
<path d="M83.5117 12.3112H81.9164V16.5355H80.9156V12.3112H79.3203V11.4697H83.5117V12.3112Z" fill="#282739"/>
<path d="M88.8977 15.167C88.7615 15.6299 88.4669 16.0303 88.0655 16.2982C87.6641 16.5661 87.1813 16.6844 86.7015 16.6325C86.3678 16.6413 86.0361 16.5774 85.7296 16.4452C85.423 16.313 85.1489 16.1156 84.9262 15.8668C84.7036 15.6181 84.5377 15.3238 84.4402 15.0045C84.3427 14.6852 84.3158 14.3485 84.3614 14.0178C84.317 13.686 84.3444 13.3486 84.4417 13.0284C84.539 12.7081 84.7039 12.4125 84.9254 12.1615C85.1469 11.9106 85.4197 11.7101 85.7254 11.5738C86.031 11.4374 86.3624 11.3683 86.6971 11.3712C88.1067 11.3712 88.9581 12.3342 88.9581 13.9249V14.2738H85.381V14.3298C85.3651 14.5158 85.3884 14.703 85.4492 14.8794C85.51 15.0558 85.6071 15.2176 85.7341 15.3542C85.8612 15.4909 86.0154 15.5995 86.187 15.673C86.3585 15.7465 86.5435 15.7833 86.7301 15.7811C86.9691 15.8096 87.2112 15.7665 87.4256 15.6572C87.64 15.5478 87.817 15.3772 87.9342 15.1669L88.8977 15.167ZM85.381 13.5344H87.9386C87.9512 13.3645 87.9282 13.1938 87.8709 13.0333C87.8137 12.8728 87.7235 12.726 87.6062 12.6024C87.4888 12.4789 87.347 12.3812 87.1897 12.3157C87.0324 12.2502 86.8631 12.2183 86.6927 12.2221C86.5198 12.2197 86.3481 12.2521 86.1878 12.3172C86.0276 12.3823 85.882 12.4789 85.7597 12.6012C85.6375 12.7236 85.5409 12.8692 85.4759 13.0295C85.4108 13.1897 85.3786 13.3614 85.381 13.5344H85.381Z" fill="#282739"/>
<path d="M93.1328 11.4688H95.4169C96.4078 11.4688 96.989 11.9708 96.989 12.7569C96.9905 13.0063 96.9064 13.2487 96.7506 13.4435C96.5948 13.6383 96.3768 13.7736 96.1332 13.8269V13.906C96.429 13.9247 96.7064 14.0563 96.908 14.2737C97.1096 14.491 97.22 14.7775 97.2164 15.0739C97.2164 15.9577 96.5517 16.5345 95.4399 16.5345H93.1328V11.4688ZM94.1238 12.2361V13.5479H95.1147C95.719 13.5479 96.0079 13.3155 96.0079 12.8871C96.0079 12.4921 95.7564 12.2361 95.2257 12.2361L94.1238 12.2361ZM94.1238 14.2829V15.7672H95.3092C95.9003 15.7672 96.2167 15.5062 96.2167 15.0272C96.2167 14.5202 95.8586 14.2829 95.184 14.2829L94.1238 14.2829Z" fill="#282739"/>
</g>
<defs>
<clipPath id="clip0_334_29179">
<rect width="134.622" height="45" fill="white" transform="translate(0.457031)"/>
</clipPath>
</defs>
</svg>
