<svg width="18" height="20" viewBox="0 0 18 20" fill="none" xmlns="http://www.w3.org/2000/svg">
<path d="M14.4228 13.4529C13.4645 13.4529 12.6012 13.8667 12.002 14.525L6.61244 11.187C6.75633 10.8186 6.83614 10.4185 6.83614 9.99998C6.83614 9.58128 6.75633 9.1812 6.61244 8.813L12.002 5.47484C12.6012 6.13311 13.4645 6.54708 14.4228 6.54708C16.2279 6.54708 17.6964 5.07857 17.6964 3.27346C17.6964 1.46835 16.2279 0 14.4228 0C12.6177 0 11.1492 1.4685 11.1492 3.27361C11.1492 3.69216 11.2291 4.09225 11.3729 4.46059L5.98348 7.7986C5.38427 7.14034 4.52093 6.72637 3.56268 6.72637C1.75757 6.72637 0.289062 8.19502 0.289062 9.99998C0.289062 11.8051 1.75757 13.2736 3.56268 13.2736C4.52093 13.2736 5.38427 12.8598 5.98348 12.2014L11.3729 15.5394C11.2291 15.9077 11.1492 16.3078 11.1492 16.7265C11.1492 18.5315 12.6177 20 14.4228 20C16.2279 20 17.6964 18.5315 17.6964 16.7265C17.6964 14.9214 16.2279 13.4529 14.4228 13.4529ZM12.3429 3.27361C12.3429 2.12677 13.2759 1.19369 14.4228 1.19369C15.5696 1.19369 16.5027 2.12677 16.5027 3.27361C16.5027 4.42046 15.5696 5.35354 14.4228 5.35354C13.2759 5.35354 12.3429 4.42046 12.3429 3.27361ZM3.56268 12.0799C2.41568 12.0799 1.4826 11.1468 1.4826 9.99998C1.4826 8.85313 2.41568 7.92006 3.56268 7.92006C4.70952 7.92006 5.64245 8.85313 5.64245 9.99998C5.64245 11.1468 4.70952 12.0799 3.56268 12.0799ZM12.3429 16.7263C12.3429 15.5795 13.2759 14.6464 14.4228 14.6464C15.5696 14.6464 16.5027 15.5795 16.5027 16.7263C16.5027 17.8732 15.5696 18.8063 14.4228 18.8063C13.2759 18.8063 12.3429 17.8732 12.3429 16.7263Z" fill="#282739"/>
</svg>
